<svg width="58" height="54" viewBox="0 0 58 54" fill="none" xmlns="http://www.w3.org/2000/svg">
<path fill-rule="evenodd" clip-rule="evenodd" d="M0 5C0 2.23858 2.23859 0 5 0H53C55.7614 0 58 2.23858 58 5C58 7.76142 55.7614 10 53 10H5C2.23859 10 0 7.76142 0 5ZM0 49C0 46.2386 2.23859 44 5 44H53C55.7614 44 58 46.2386 58 49C58 51.7614 55.7614 54 53 54H5C2.23859 54 0 51.7614 0 49ZM5 22C2.23859 22 0 24.2386 0 27C0 29.7614 2.23859 32 5 32H53C55.7614 32 58 29.7614 58 27C58 24.2386 55.7614 22 53 22H5Z" fill="#E29578"/>
</svg>
