<svg width="269" height="269" viewBox="0 0 269 269" fill="none" xmlns="http://www.w3.org/2000/svg">
<circle cx="134.5" cy="134.5" r="134.5" fill="#006D77"/>
<rect width="179.333" height="179.333" transform="translate(49.3167 44.8333)" fill="#006D77"/>
<path d="M82.9417 134.5C93.2586 134.5 101.622 126.136 101.622 115.819C101.622 105.502 93.2586 97.1389 82.9417 97.1389C72.6247 97.1389 64.2611 105.502 64.2611 115.819C64.2611 126.136 72.6247 134.5 82.9417 134.5Z" fill="white"/>
<path d="M116.567 104.611C126.884 104.611 135.247 96.2475 135.247 85.9306C135.247 75.6136 126.884 67.25 116.567 67.25C106.25 67.25 97.8861 75.6136 97.8861 85.9306C97.8861 96.2475 106.25 104.611 116.567 104.611Z" fill="white"/>
<path d="M161.4 104.611C171.717 104.611 180.081 96.2475 180.081 85.9306C180.081 75.6136 171.717 67.25 161.4 67.25C151.083 67.25 142.719 75.6136 142.719 85.9306C142.719 96.2475 151.083 104.611 161.4 104.611Z" fill="white"/>
<path d="M195.025 134.5C205.342 134.5 213.706 126.136 213.706 115.819C213.706 105.502 205.342 97.1389 195.025 97.1389C184.708 97.1389 176.344 105.502 176.344 115.819C176.344 126.136 184.708 134.5 195.025 134.5Z" fill="white"/>
<path d="M178.885 155.871C172.384 148.249 166.929 141.748 160.354 134.126C156.917 130.091 152.508 126.056 147.277 124.263C146.455 123.964 145.634 123.74 144.812 123.591C142.944 123.292 140.926 123.292 138.983 123.292C137.04 123.292 135.023 123.292 133.08 123.665C132.258 123.815 131.436 124.039 130.614 124.338C125.384 126.131 121.05 130.166 117.538 134.201C111.037 141.823 105.582 148.324 99.0069 155.945C89.2183 165.734 77.188 176.569 79.4297 191.737C81.5966 199.359 87.0513 206.906 96.8399 209.073C102.295 210.194 119.705 205.785 138.236 205.785H139.581C158.112 205.785 175.522 210.119 180.977 209.073C190.766 206.906 196.22 199.284 198.387 191.737C200.704 176.494 188.674 165.659 178.885 155.871Z" fill="white"/>
</svg>
