<svg width="32" height="32" viewBox="0 0 32 32" fill="none" xmlns="http://www.w3.org/2000/svg">
<rect width="32" height="32" rx="5" fill="#006D77"/>
<g clip-path="url(#clip0_155_11)">
<path d="M22.0274 15.0234L22.4688 14.582L21.1446 13.2578L18.7188 10.832L17.3946 9.50781L16.9531 9.94922L16.0703 10.832L8.28908 18.6133C7.88283 19.0195 7.58596 19.5234 7.4219 20.0742L6.03908 24.7773C5.94143 25.1055 6.03127 25.4609 6.27737 25.7031C6.52346 25.9453 6.87502 26.0352 7.20315 25.9414L11.9024 24.5586C12.4531 24.3945 12.9571 24.0977 13.3633 23.6914L21.1446 15.9102L22.0274 15.0234ZM12.25 21.6016L11.8946 22.4883C11.7383 22.6094 11.5625 22.6992 11.375 22.7578L8.32033 23.6562L9.21877 20.6055C9.27346 20.4141 9.36721 20.2383 9.4883 20.0859L10.375 19.7305V20.9805C10.375 21.3242 10.6563 21.6055 11 21.6055H12.25V21.6016ZM20.168 6.73047L19.6055 7.29688L18.7227 8.17969L18.2774 8.62109L19.6016 9.94531L22.0274 12.3711L23.3516 13.6953L23.793 13.2539L24.6758 12.3711L25.2422 11.8047C26.2188 10.8281 26.2188 9.24609 25.2422 8.26953L23.7071 6.73047C22.7305 5.75391 21.1485 5.75391 20.1719 6.73047H20.168ZM18.3164 13.293L12.6914 18.918C12.4492 19.1602 12.0508 19.1602 11.8086 18.918C11.5664 18.6758 11.5664 18.2773 11.8086 18.0352L17.4336 12.4102C17.6758 12.168 18.0742 12.168 18.3164 12.4102C18.5586 12.6523 18.5586 13.0508 18.3164 13.293Z" fill="white"/>
</g>
<defs>
<clipPath id="clip0_155_11">
<rect width="20" height="20" fill="white" transform="translate(6 6)"/>
</clipPath>
</defs>
</svg>
