<svg width="70" height="70" viewBox="0 0 70 70" fill="none" xmlns="http://www.w3.org/2000/svg">
<circle cx="35" cy="35" r="35" fill="#E29578"/>
<path d="M28.8729 18.625C30.6921 18.3629 32.6192 20.3517 33.1742 23.0958C33.7292 25.8246 32.7271 28.2604 30.9079 28.5379C29.1042 28.8154 27.1617 26.8267 26.5913 24.0825C26.0209 21.3537 27.0538 18.9179 28.8729 18.625ZM39.8959 18.625C41.7304 18.9179 42.7479 21.3537 42.2084 24.0825C41.6225 26.8267 39.6954 28.8154 37.8763 28.5379C36.0417 28.2604 35.0396 25.8246 35.61 23.0958C36.165 20.3517 38.0921 18.3629 39.8959 18.625ZM20.625 25.7167C22.3825 24.9612 24.7721 26.3333 26.0209 28.7229C27.1925 31.1587 26.7917 33.7179 25.0496 34.4733C23.3075 35.2287 20.9334 33.8721 19.7154 31.4517C18.4975 29.0312 18.9292 26.4567 20.625 25.7167ZM48.375 25.7167C50.0709 26.4567 50.5025 29.0312 49.2846 31.4517C48.0667 33.8721 45.6925 35.2287 43.9504 34.4733C42.2084 33.7179 41.8075 31.1587 42.9792 28.7229C44.2279 26.3333 46.6175 24.9612 48.375 25.7167ZM45.8004 42.3358C45.8621 43.785 44.7521 45.3883 43.4263 45.9896C40.6667 47.2537 37.3984 44.6329 34.3304 44.6329C31.2625 44.6329 27.9634 47.3617 25.25 45.9896C23.7084 45.2342 22.6446 43.23 22.845 41.565C23.1225 39.2679 25.8821 38.0346 27.5163 36.3542C29.69 34.1804 31.2317 30.095 34.3304 30.095C37.4138 30.095 39.0479 34.1187 41.1292 36.3542C42.8404 38.235 45.6925 39.8229 45.8004 42.3358Z" fill="white"/>
</svg>
