<svg width="286" height="293" viewBox="0 0 286 293" fill="none" xmlns="http://www.w3.org/2000/svg">
<ellipse cx="143" cy="146.5" rx="143" ry="146.5" fill="#006D77"/>
<rect width="175" height="195" transform="translate(55 27)" fill="#006D77"/>
<path d="M87.8125 124.5C97.8802 124.5 106.042 115.406 106.042 104.187C106.042 92.9692 97.8802 83.875 87.8125 83.875C77.7448 83.875 69.5834 92.9692 69.5834 104.187C69.5834 115.406 77.7448 124.5 87.8125 124.5Z" fill="white"/>
<path d="M120.625 92C130.693 92 138.854 82.9058 138.854 71.6875C138.854 60.4692 130.693 51.375 120.625 51.375C110.557 51.375 102.396 60.4692 102.396 71.6875C102.396 82.9058 110.557 92 120.625 92Z" fill="white"/>
<path d="M164.375 92C174.443 92 182.604 82.9058 182.604 71.6875C182.604 60.4692 174.443 51.375 164.375 51.375C154.307 51.375 146.146 60.4692 146.146 71.6875C146.146 82.9058 154.307 92 164.375 92Z" fill="white"/>
<path d="M197.188 124.5C207.255 124.5 215.417 115.406 215.417 104.187C215.417 92.9692 207.255 83.875 197.188 83.875C187.12 83.875 178.958 92.9692 178.958 104.187C178.958 115.406 187.12 124.5 197.188 124.5Z" fill="white"/>
<path d="M181.438 147.737C175.094 139.45 169.771 132.381 163.354 124.094C160 119.706 155.698 115.319 150.594 113.369C149.792 113.044 148.99 112.8 148.188 112.637C146.365 112.312 144.396 112.312 142.5 112.312C140.604 112.312 138.635 112.313 136.74 112.719C135.938 112.881 135.135 113.125 134.333 113.45C129.229 115.4 125 119.788 121.573 124.175C115.229 132.463 109.906 139.531 103.49 147.819C93.9375 158.462 82.198 170.244 84.3855 186.737C86.5 195.025 91.823 203.231 101.375 205.587C106.698 206.806 123.688 202.013 141.771 202.013H143.083C161.167 202.013 178.156 206.725 183.479 205.587C193.031 203.231 198.354 194.944 200.469 186.737C202.729 170.162 190.99 158.381 181.438 147.737Z" fill="white"/>
<path d="M90.375 238.906L90.4062 232.297C90.4062 228.547 90.2865 225.37 90.0469 222.766C90.0156 222.432 90.099 222.188 90.2969 222.031C90.4948 221.865 90.7188 221.781 90.9688 221.781C91.2292 221.781 91.4635 221.865 91.6719 222.031C91.8802 222.188 91.974 222.542 91.9531 223.094C91.9323 223.635 91.9062 224.328 91.875 225.172C91.8542 226.005 91.8333 226.891 91.8125 227.828C91.7708 229.703 91.75 231.401 91.75 232.922C91.75 234.443 91.75 235.484 91.75 236.047C91.7604 236.599 91.7708 237.135 91.7812 237.656C91.8333 240.427 91.9896 242.182 92.25 242.922C92.5104 243.661 92.8125 244.229 93.1562 244.625C93.8438 245.417 94.7292 245.812 95.8125 245.812C96.9271 245.812 97.849 245.401 98.5781 244.578C99.3281 243.724 99.7656 242.531 99.8906 241C100.005 239.125 100.062 237.62 100.062 236.484C100.062 235.349 100.057 234.37 100.047 233.547C100.047 232.714 100.036 231.781 100.016 230.75C99.9323 227.75 99.849 225.057 99.7656 222.672C99.7552 222.339 99.8438 222.094 100.031 221.938C100.219 221.781 100.432 221.703 100.672 221.703C100.911 221.703 101.13 221.781 101.328 221.938C101.526 222.094 101.62 222.339 101.609 222.672C101.568 224.224 101.542 225.755 101.531 227.266C101.531 228.776 101.526 230.276 101.516 231.766C101.495 235.38 101.427 237.979 101.312 239.562C101.198 241.135 101.021 242.323 100.781 243.125C100.552 243.927 100.219 244.641 99.7812 245.266C98.8021 246.661 97.4844 247.359 95.8281 247.359C93.0885 247.359 91.3802 245.844 90.7031 242.812C90.4844 241.865 90.375 240.807 90.375 239.641V238.906ZM107.656 247.328C107.625 248.036 107.609 248.74 107.609 249.438C107.609 250.135 107.688 251.734 107.844 254.234C107.844 254.63 107.63 254.896 107.203 255.031C107.089 255.062 106.974 255.078 106.859 255.078C106.755 255.078 106.651 255.057 106.547 255.016C106.453 254.984 106.37 254.927 106.297 254.844C106.12 254.667 106.047 254.37 106.078 253.953C106.182 252.547 106.234 250.464 106.234 247.703C106.234 242.797 106.177 239.026 106.062 236.391C106.042 236.047 106.115 235.771 106.281 235.562C106.458 235.354 106.667 235.25 106.906 235.25C107.146 235.25 107.339 235.339 107.484 235.516C107.641 235.682 107.708 235.906 107.688 236.188C107.656 236.646 107.635 237.047 107.625 237.391C107.99 236.724 108.474 236.167 109.078 235.719C109.839 235.146 110.693 234.859 111.641 234.859C112.589 234.859 113.328 235.214 113.859 235.922C114.401 236.63 114.672 237.542 114.672 238.656C114.672 239.771 114.557 240.719 114.328 241.5C114.099 242.271 113.792 242.964 113.406 243.578C113.031 244.193 112.594 244.729 112.094 245.188C111.604 245.646 111.099 246.031 110.578 246.344C109.547 246.958 108.573 247.286 107.656 247.328ZM107.625 240.156C107.594 242.896 107.609 244.828 107.672 245.953C108.078 246.005 108.547 245.911 109.078 245.672C109.755 245.37 110.318 245.036 110.766 244.672C111.214 244.307 111.62 243.859 111.984 243.328C112.818 242.109 113.234 240.656 113.234 238.969C113.234 238.062 113.047 237.38 112.672 236.922C112.297 236.453 111.849 236.219 111.328 236.219C110.818 236.219 110.349 236.349 109.922 236.609C109.495 236.859 109.12 237.177 108.797 237.562C108.13 238.375 107.74 239.24 107.625 240.156ZM119.688 226.562C119.667 227.833 119.646 229.208 119.625 230.688C119.615 232.167 119.609 234.448 119.609 237.531C119.609 240.615 119.651 243.469 119.734 246.094C119.745 246.438 119.661 246.698 119.484 246.875C119.318 247.052 119.115 247.141 118.875 247.141C118.635 247.141 118.422 247.062 118.234 246.906C118.047 246.74 117.969 246.37 118 245.797C118.031 245.224 118.062 244.365 118.094 243.219C118.135 242.062 118.172 240.812 118.203 239.469C118.255 236.51 118.281 234.036 118.281 232.047C118.281 230.047 118.276 228.547 118.266 227.547C118.266 226.547 118.26 225.625 118.25 224.781C118.229 223.198 118.177 221.75 118.094 220.438C118.073 220.104 118.141 219.849 118.297 219.672C118.453 219.484 118.651 219.391 118.891 219.391C119.13 219.391 119.349 219.484 119.547 219.672C119.755 219.849 119.849 220.208 119.828 220.75C119.807 221.292 119.781 222.078 119.75 223.109C119.729 224.141 119.708 225.292 119.688 226.562ZM128.859 236.484C128.516 236.234 128.109 236.109 127.641 236.109C127.182 236.109 126.76 236.24 126.375 236.5C126 236.75 125.682 237.104 125.422 237.562C124.891 238.479 124.625 239.74 124.625 241.344C124.625 242.938 124.88 244.115 125.391 244.875C125.901 245.635 126.583 246.016 127.438 246.016C128.375 246.016 129.125 245.479 129.688 244.406C130.188 243.448 130.438 242.271 130.438 240.875C130.438 238.729 129.911 237.266 128.859 236.484ZM127.422 247.344C126.828 247.354 126.271 247.234 125.75 246.984C125.24 246.724 124.797 246.323 124.422 245.781C123.599 244.635 123.188 243.005 123.188 240.891C123.188 238.995 123.63 237.5 124.516 236.406C125.349 235.365 126.453 234.844 127.828 234.844C128.984 234.844 129.943 235.344 130.703 236.344C131.484 237.406 131.875 238.865 131.875 240.719C131.875 242.781 131.422 244.427 130.516 245.656C129.703 246.76 128.672 247.323 127.422 247.344ZM140.766 243.797C140.755 243.224 140.755 242.521 140.766 241.688C140.318 241.531 139.75 241.453 139.062 241.453C138.135 241.453 137.375 241.677 136.781 242.125C136.49 242.354 136.255 242.635 136.078 242.969C135.901 243.292 135.812 243.714 135.812 244.234C135.812 244.745 135.99 245.172 136.344 245.516C136.698 245.859 137.219 246.031 137.906 246.031C138.594 246.031 139.359 245.562 140.203 244.625C140.443 244.365 140.63 244.089 140.766 243.797ZM141.766 247.328C141.141 247.328 140.828 246.854 140.828 245.906C140.828 245.844 140.823 245.667 140.812 245.375C140.719 245.49 140.615 245.615 140.5 245.75C139.562 246.812 138.542 247.344 137.438 247.344C136.552 247.344 135.818 247.062 135.234 246.5C134.63 245.917 134.328 245.172 134.328 244.266C134.328 243.005 134.818 241.99 135.797 241.219C136.234 240.875 136.724 240.615 137.266 240.438C137.818 240.26 138.432 240.172 139.109 240.172C139.672 240.172 140.224 240.266 140.766 240.453V238.797C140.766 237.88 140.573 237.193 140.188 236.734C139.812 236.276 139.422 236.047 139.016 236.047C138.609 236.047 138.276 236.099 138.016 236.203C137.766 236.307 137.542 236.458 137.344 236.656C136.906 237.083 136.656 237.615 136.594 238.25C136.625 238.583 136.557 238.818 136.391 238.953C136.224 239.078 136.042 239.141 135.844 239.141C135.281 239.141 135.01 238.766 135.031 238.016C135.052 237.234 135.448 236.516 136.219 235.859C137.01 235.182 137.896 234.844 138.875 234.844C140.333 234.844 141.318 235.568 141.828 237.016C142.005 237.536 142.094 238.109 142.094 238.734V240.344L142.078 242.969V244.359C142.078 244.984 142.151 245.49 142.297 245.875C142.453 246.26 142.531 246.536 142.531 246.703C142.531 246.859 142.453 247 142.297 247.125C142.141 247.26 141.964 247.328 141.766 247.328ZM151.938 240.125L151.922 236.828C151.318 236.443 150.745 236.25 150.203 236.25C149.672 236.25 149.203 236.359 148.797 236.578C148.401 236.786 148.042 237.104 147.719 237.531C146.99 238.479 146.625 239.734 146.625 241.297C146.625 243.495 147.13 244.943 148.141 245.641C148.474 245.87 148.854 245.984 149.281 245.984C149.708 245.984 150.073 245.896 150.375 245.719C150.677 245.542 150.932 245.323 151.141 245.062C151.516 244.583 151.771 244.016 151.906 243.359C151.927 242.505 151.938 241.427 151.938 240.125ZM153.203 224.5C153.193 225.281 153.182 226.109 153.172 226.984C153.172 227.849 153.172 229.714 153.172 232.578C153.172 235.432 153.224 238.203 153.328 240.891C153.443 243.568 153.521 245.026 153.562 245.266C153.615 245.505 153.667 245.708 153.719 245.875C153.781 246.042 153.833 246.177 153.875 246.281C153.927 246.385 153.953 246.51 153.953 246.656C153.953 246.802 153.885 246.932 153.75 247.047C153.625 247.172 153.484 247.234 153.328 247.234C152.651 247.234 152.297 246.562 152.266 245.219C152.266 245.188 152.266 245.161 152.266 245.141C151.578 246.609 150.547 247.344 149.172 247.344C147.984 247.344 147.026 246.854 146.297 245.875C145.516 244.823 145.125 243.349 145.125 241.453C145.125 239.464 145.641 237.844 146.672 236.594C147.609 235.448 148.719 234.875 150 234.875C150.719 234.875 151.333 235.005 151.844 235.266C151.833 234.516 151.828 233.74 151.828 232.938C151.818 231.938 151.807 230.943 151.797 229.953C151.786 228.953 151.771 227.984 151.75 227.047C151.74 226.109 151.729 225.229 151.719 224.406C151.698 222.688 151.672 221.531 151.641 220.938C151.609 220.344 151.688 219.969 151.875 219.812C152.062 219.646 152.271 219.562 152.5 219.562C152.74 219.562 152.953 219.646 153.141 219.812C153.339 219.969 153.417 220.26 153.375 220.688C153.344 221.115 153.312 221.661 153.281 222.328C153.25 222.995 153.224 223.719 153.203 224.5ZM165.391 240.109C165.474 242.62 165.536 244.552 165.578 245.906C165.589 246.26 165.5 246.526 165.312 246.703C165.135 246.87 164.938 246.953 164.719 246.953C164.51 246.953 164.323 246.875 164.156 246.719C163.99 246.552 163.906 246.292 163.906 245.938V242.406L163.891 237.562V233.219C163.891 230.385 163.865 228.583 163.812 227.812C163.771 227.042 163.74 226.458 163.719 226.062C163.698 225.667 163.672 225.266 163.641 224.859C163.609 224.443 163.578 224.036 163.547 223.641C163.526 223.245 163.552 222.974 163.625 222.828C163.708 222.682 163.807 222.578 163.922 222.516C164.036 222.443 164.156 222.396 164.281 222.375C164.406 222.354 164.672 222.292 165.078 222.188C166.359 221.875 167.495 221.719 168.484 221.719C169.474 221.719 170.312 221.844 171 222.094C171.688 222.344 172.276 222.724 172.766 223.234C173.807 224.307 174.328 225.839 174.328 227.828C174.328 230.536 173.38 233.021 171.484 235.281C169.953 237.104 167.922 238.714 165.391 240.109ZM165.344 238.625C170.375 235.896 172.891 232.344 172.891 227.969C172.891 225.562 172.057 224.016 170.391 223.328C169.151 222.818 167.646 222.865 165.875 223.469C165.667 223.542 165.469 223.615 165.281 223.688C165.208 225.51 165.172 227.385 165.172 229.312V234.031C165.172 234.229 165.177 234.422 165.188 234.609C165.198 234.797 165.203 235 165.203 235.219C165.214 235.427 165.224 235.703 165.234 236.047C165.255 236.38 165.276 236.802 165.297 237.312C165.307 237.677 165.323 238.115 165.344 238.625ZM178.219 237.734C179.146 235.87 180.339 234.938 181.797 234.938C183.109 234.938 183.995 235.708 184.453 237.25C184.609 237.792 184.688 238.458 184.688 239.25V241.781C184.688 243.656 184.729 245.052 184.812 245.969C184.833 246.302 184.74 246.557 184.531 246.734C184.333 246.911 184.12 247 183.891 247C183.661 247 183.464 246.922 183.297 246.766C183.13 246.609 183.078 246.245 183.141 245.672C183.224 244.786 183.266 243.818 183.266 242.766C183.266 241.714 183.255 240.974 183.234 240.547C183.214 240.109 183.193 239.573 183.172 238.938C183.161 238.302 183.036 237.719 182.797 237.188C182.557 236.656 182.198 236.391 181.719 236.391C181.25 236.391 180.828 236.516 180.453 236.766C180.089 237.016 179.755 237.333 179.453 237.719C178.839 238.542 178.453 239.469 178.297 240.5C178.339 242.99 178.406 244.812 178.5 245.969C178.521 246.302 178.443 246.557 178.266 246.734C178.089 246.911 177.859 247 177.578 247C177.047 247 176.781 246.677 176.781 246.031L177 228.688C177 226.469 176.943 223.698 176.828 220.375C176.807 220.042 176.896 219.797 177.094 219.641C177.302 219.474 177.521 219.391 177.75 219.391C177.979 219.391 178.172 219.474 178.328 219.641C178.495 219.797 178.568 220.078 178.547 220.484C178.536 220.891 178.521 221.484 178.5 222.266C178.479 223.036 178.453 223.911 178.422 224.891C178.401 225.87 178.38 226.922 178.359 228.047C178.339 229.172 178.318 230.323 178.297 231.5C178.276 232.677 178.26 233.854 178.25 235.031C178.24 235.958 178.229 236.859 178.219 237.734ZM193.516 236.484C193.172 236.234 192.766 236.109 192.297 236.109C191.839 236.109 191.417 236.24 191.031 236.5C190.656 236.75 190.339 237.104 190.078 237.562C189.547 238.479 189.281 239.74 189.281 241.344C189.281 242.938 189.536 244.115 190.047 244.875C190.557 245.635 191.24 246.016 192.094 246.016C193.031 246.016 193.781 245.479 194.344 244.406C194.844 243.448 195.094 242.271 195.094 240.875C195.094 238.729 194.568 237.266 193.516 236.484ZM192.078 247.344C191.484 247.354 190.927 247.234 190.406 246.984C189.896 246.724 189.453 246.323 189.078 245.781C188.255 244.635 187.844 243.005 187.844 240.891C187.844 238.995 188.286 237.5 189.172 236.406C190.005 235.365 191.109 234.844 192.484 234.844C193.641 234.844 194.599 235.344 195.359 236.344C196.141 237.406 196.531 238.865 196.531 240.719C196.531 242.781 196.078 244.427 195.172 245.656C194.359 246.76 193.328 247.323 192.078 247.344ZM200.031 232.188C200.031 231.823 200.12 231.552 200.297 231.375C200.474 231.198 200.667 231.109 200.875 231.109C201.083 231.109 201.271 231.198 201.438 231.375C201.604 231.552 201.667 231.823 201.625 232.188C201.531 233.156 201.474 234.281 201.453 235.562C202.307 235.562 202.953 235.536 203.391 235.484C203.828 235.432 204.141 235.406 204.328 235.406C205.036 235.385 205.391 235.646 205.391 236.188C205.391 236.5 205.208 236.719 204.844 236.844C204.719 236.885 204.573 236.901 204.406 236.891C204.24 236.88 204.057 236.875 203.859 236.875C203.672 236.865 203.484 236.859 203.297 236.859C202.974 236.859 202.661 236.859 202.359 236.859C202.068 236.859 201.807 236.865 201.578 236.875C201.536 236.875 201.49 236.875 201.438 236.875C201.438 236.896 201.438 236.911 201.438 236.922C201.438 241.234 201.5 243.667 201.625 244.219C201.75 244.771 201.885 245.167 202.031 245.406C202.292 245.823 202.625 246.031 203.031 246.031C203.688 246.031 204.13 245.708 204.359 245.062C204.453 244.542 204.719 244.281 205.156 244.281C205.312 244.281 205.448 244.349 205.562 244.484C205.688 244.609 205.75 244.797 205.75 245.047C205.75 245.297 205.672 245.568 205.516 245.859C205.359 246.151 205.151 246.406 204.891 246.625C204.318 247.104 203.677 247.344 202.969 247.344C201.677 247.344 200.786 246.63 200.297 245.203C200.12 244.682 200.031 244.042 200.031 243.281V236.984C199.812 236.995 199.573 237.01 199.312 237.031C198.99 237.042 198.745 236.964 198.578 236.797C198.422 236.62 198.344 236.438 198.344 236.25C198.344 236.052 198.427 235.88 198.594 235.734C198.76 235.578 199.01 235.5 199.344 235.5L200.031 235.516V232.188ZM213.078 236.484C212.734 236.234 212.328 236.109 211.859 236.109C211.401 236.109 210.979 236.24 210.594 236.5C210.219 236.75 209.901 237.104 209.641 237.562C209.109 238.479 208.844 239.74 208.844 241.344C208.844 242.938 209.099 244.115 209.609 244.875C210.12 245.635 210.802 246.016 211.656 246.016C212.594 246.016 213.344 245.479 213.906 244.406C214.406 243.448 214.656 242.271 214.656 240.875C214.656 238.729 214.13 237.266 213.078 236.484ZM211.641 247.344C211.047 247.354 210.49 247.234 209.969 246.984C209.458 246.724 209.016 246.323 208.641 245.781C207.818 244.635 207.406 243.005 207.406 240.891C207.406 238.995 207.849 237.5 208.734 236.406C209.568 235.365 210.672 234.844 212.047 234.844C213.203 234.844 214.161 235.344 214.922 236.344C215.703 237.406 216.094 238.865 216.094 240.719C216.094 242.781 215.641 244.427 214.734 245.656C213.922 246.76 212.891 247.323 211.641 247.344Z" fill="white"/>
</svg>
