<svg width="32" height="32" viewBox="0 0 32 32" fill="none" xmlns="http://www.w3.org/2000/svg">
<rect width="32" height="32" rx="5" fill="#006D77"/>
<g clip-path="url(#clip0_155_12)">
<path d="M12.0357 6.69141L11.7143 7.25H7.42857C6.63839 7.25 6 7.80859 6 8.5C6 9.19141 6.63839 9.75 7.42857 9.75H24.5714C25.3616 9.75 26 9.19141 26 8.5C26 7.80859 25.3616 7.25 24.5714 7.25H20.2857L19.9643 6.69141C19.7232 6.26563 19.2277 6 18.6875 6H13.3125C12.7723 6 12.2768 6.26563 12.0357 6.69141ZM24.5714 11H7.42857L8.375 24.2422C8.44643 25.2305 9.38393 26 10.5134 26H21.4866C22.6161 26 23.5536 25.2305 23.625 24.2422L24.5714 11Z" fill="white"/>
</g>
<defs>
<clipPath id="clip0_155_12">
<rect width="20" height="20" fill="white" transform="translate(6 6)"/>
</clipPath>
</defs>
</svg>
