<svg width="70" height="70" viewBox="0 0 70 70" fill="none" xmlns="http://www.w3.org/2000/svg">
<circle cx="35" cy="35" r="35" fill="#006D77"/>
<path d="M19.4398 37.6625L32.4982 49.8537C33.0402 50.3596 33.7557 50.6414 34.5 50.6414C35.2443 50.6414 35.9598 50.3596 36.5018 49.8537L49.5602 37.6625C51.757 35.6174 53 32.7485 53 29.7494V29.3303C53 24.2789 49.3506 19.9719 44.3715 19.1409C41.0762 18.5916 37.723 19.6684 35.3672 22.0243L34.5 22.8914L33.6328 22.0243C31.277 19.6684 27.9238 18.5916 24.6285 19.1409C19.6494 19.9719 16 24.2789 16 29.3303V29.7494C16 32.7485 17.243 35.6174 19.4398 37.6625Z" fill="white"/>
</svg>
