<svg width="60" height="60" viewBox="0 0 60 60" fill="none" xmlns="http://www.w3.org/2000/svg">
<circle cx="30" cy="30" r="30" fill="#006D77"/>
<rect width="40" height="40" transform="translate(11 10)" fill="#006D77"/>
<path d="M18.5 30C20.8012 30 22.6667 28.1345 22.6667 25.8334C22.6667 23.5322 20.8012 21.6667 18.5 21.6667C16.1989 21.6667 14.3334 23.5322 14.3334 25.8334C14.3334 28.1345 16.1989 30 18.5 30Z" fill="white"/>
<path d="M26 23.3333C28.3012 23.3333 30.1667 21.4679 30.1667 19.1667C30.1667 16.8655 28.3012 15 26 15C23.6989 15 21.8334 16.8655 21.8334 19.1667C21.8334 21.4679 23.6989 23.3333 26 23.3333Z" fill="white"/>
<path d="M36 23.3333C38.3012 23.3333 40.1667 21.4679 40.1667 19.1667C40.1667 16.8655 38.3012 15 36 15C33.6989 15 31.8334 16.8655 31.8334 19.1667C31.8334 21.4679 33.6989 23.3333 36 23.3333Z" fill="white"/>
<path d="M43.5 30C45.8012 30 47.6667 28.1345 47.6667 25.8334C47.6667 23.5322 45.8012 21.6667 43.5 21.6667C41.1989 21.6667 39.3334 23.5322 39.3334 25.8334C39.3334 28.1345 41.1989 30 43.5 30Z" fill="white"/>
<path d="M39.9 34.7667C38.45 33.0667 37.2334 31.6167 35.7667 29.9167C35 29.0167 34.0167 28.1167 32.85 27.7167C32.6667 27.65 32.4834 27.6 32.3 27.5667C31.8834 27.5 31.4334 27.5 31 27.5C30.5667 27.5 30.1167 27.5 29.6834 27.5833C29.5 27.6167 29.3167 27.6667 29.1334 27.7333C27.9667 28.1333 27 29.0333 26.2167 29.9333C24.7667 31.6333 23.55 33.0833 22.0834 34.7833C19.9 36.9667 17.2167 39.3833 17.7167 42.7667C18.2 44.4667 19.4167 46.15 21.6 46.6333C22.8167 46.8833 26.7 45.9 30.8334 45.9H31.1334C35.2667 45.9 39.15 46.8667 40.3667 46.6333C42.55 46.15 43.7667 44.45 44.25 42.7667C44.7667 39.3667 42.0834 36.95 39.9 34.7667Z" fill="white"/>
</svg>
