<svg width="315" height="350" viewBox="0 0 315 350" fill="none" xmlns="http://www.w3.org/2000/svg">
<circle cx="157.5" cy="157.5" r="157.5" fill="#83C5BE"/>
<ellipse cx="157.956" cy="77.9559" rx="50.9559" ry="50.9559" fill="white"/>
<path fill-rule="evenodd" clip-rule="evenodd" d="M34 189.5C62.837 162.403 107.606 145 157.875 145C208.145 145 252.913 162.403 281.75 189.5C252.913 216.597 208.145 234 157.875 234C107.606 234 62.837 216.597 34 189.5Z" fill="white"/>
<path d="M81.457 267.883L81.4961 259.621C81.4961 254.934 81.3464 250.962 81.0469 247.707C81.0078 247.29 81.112 246.984 81.3594 246.789C81.6068 246.581 81.8867 246.477 82.1992 246.477C82.5247 246.477 82.8177 246.581 83.0781 246.789C83.3385 246.984 83.4557 247.427 83.4297 248.117C83.4036 248.794 83.3711 249.66 83.332 250.715C83.306 251.757 83.2799 252.863 83.2539 254.035C83.2018 256.379 83.1758 258.501 83.1758 260.402C83.1758 262.303 83.1758 263.605 83.1758 264.309C83.1888 264.999 83.2018 265.669 83.2148 266.32C83.2799 269.784 83.4753 271.978 83.8008 272.902C84.1263 273.827 84.5039 274.536 84.9336 275.031C85.793 276.021 86.8997 276.516 88.2539 276.516C89.6471 276.516 90.7995 276.001 91.7109 274.973C92.6484 273.905 93.1953 272.414 93.3516 270.5C93.4948 268.156 93.5664 266.275 93.5664 264.855C93.5664 263.436 93.5599 262.212 93.5469 261.184C93.5469 260.142 93.5339 258.977 93.5078 257.688C93.4036 253.938 93.2995 250.572 93.1953 247.59C93.1823 247.173 93.293 246.867 93.5273 246.672C93.7617 246.477 94.0286 246.379 94.3281 246.379C94.6276 246.379 94.901 246.477 95.1484 246.672C95.3958 246.867 95.513 247.173 95.5 247.59C95.4479 249.53 95.4154 251.444 95.4023 253.332C95.4023 255.22 95.3958 257.095 95.3828 258.957C95.3568 263.475 95.2721 266.724 95.1289 268.703C94.9857 270.669 94.7643 272.154 94.4648 273.156C94.1784 274.159 93.7617 275.051 93.2148 275.832C91.9909 277.577 90.3438 278.449 88.2734 278.449C84.849 278.449 82.7135 276.555 81.8672 272.766C81.5938 271.581 81.457 270.259 81.457 268.801V267.883ZM103.059 278.41C103.02 279.296 103 280.174 103 281.047C103 281.919 103.098 283.918 103.293 287.043C103.293 287.538 103.026 287.87 102.492 288.039C102.349 288.078 102.206 288.098 102.062 288.098C101.932 288.098 101.802 288.072 101.672 288.02C101.555 287.98 101.451 287.909 101.359 287.805C101.138 287.583 101.047 287.212 101.086 286.691C101.216 284.934 101.281 282.329 101.281 278.879C101.281 272.746 101.21 268.033 101.066 264.738C101.04 264.309 101.132 263.964 101.34 263.703C101.561 263.443 101.822 263.312 102.121 263.312C102.421 263.312 102.661 263.423 102.844 263.645C103.039 263.853 103.124 264.133 103.098 264.484C103.059 265.057 103.033 265.559 103.02 265.988C103.475 265.155 104.081 264.458 104.836 263.898C105.786 263.182 106.854 262.824 108.039 262.824C109.224 262.824 110.148 263.267 110.812 264.152C111.49 265.038 111.828 266.177 111.828 267.57C111.828 268.964 111.685 270.148 111.398 271.125C111.112 272.089 110.728 272.954 110.246 273.723C109.777 274.491 109.23 275.161 108.605 275.734C107.993 276.307 107.362 276.789 106.711 277.18C105.422 277.948 104.204 278.358 103.059 278.41ZM103.02 269.445C102.98 272.87 103 275.285 103.078 276.691C103.586 276.757 104.172 276.639 104.836 276.34C105.682 275.962 106.385 275.546 106.945 275.09C107.505 274.634 108.013 274.074 108.469 273.41C109.51 271.887 110.031 270.07 110.031 267.961C110.031 266.828 109.797 265.975 109.328 265.402C108.859 264.816 108.299 264.523 107.648 264.523C107.01 264.523 106.424 264.686 105.891 265.012C105.357 265.324 104.888 265.721 104.484 266.203C103.651 267.219 103.163 268.299 103.02 269.445ZM118.098 252.453C118.072 254.042 118.046 255.76 118.02 257.609C118.007 259.458 118 262.31 118 266.164C118 270.018 118.052 273.586 118.156 276.867C118.169 277.297 118.065 277.622 117.844 277.844C117.635 278.065 117.382 278.176 117.082 278.176C116.783 278.176 116.516 278.078 116.281 277.883C116.047 277.674 115.949 277.212 115.988 276.496C116.027 275.78 116.066 274.706 116.105 273.273C116.158 271.828 116.203 270.266 116.242 268.586C116.307 264.888 116.34 261.796 116.34 259.309C116.34 256.809 116.333 254.934 116.32 253.684C116.32 252.434 116.314 251.281 116.301 250.227C116.275 248.247 116.21 246.438 116.105 244.797C116.079 244.38 116.164 244.061 116.359 243.84C116.555 243.605 116.802 243.488 117.102 243.488C117.401 243.488 117.674 243.605 117.922 243.84C118.182 244.061 118.299 244.51 118.273 245.188C118.247 245.865 118.215 246.848 118.176 248.137C118.15 249.426 118.124 250.865 118.098 252.453ZM129.562 264.855C129.133 264.543 128.625 264.387 128.039 264.387C127.466 264.387 126.939 264.549 126.457 264.875C125.988 265.188 125.591 265.63 125.266 266.203C124.602 267.349 124.27 268.924 124.27 270.93C124.27 272.922 124.589 274.393 125.227 275.344C125.865 276.294 126.717 276.77 127.785 276.77C128.957 276.77 129.895 276.099 130.598 274.758C131.223 273.56 131.535 272.089 131.535 270.344C131.535 267.661 130.878 265.832 129.562 264.855ZM127.766 278.43C127.023 278.443 126.327 278.293 125.676 277.98C125.038 277.655 124.484 277.154 124.016 276.477C122.987 275.044 122.473 273.007 122.473 270.363C122.473 267.993 123.026 266.125 124.133 264.758C125.174 263.456 126.555 262.805 128.273 262.805C129.719 262.805 130.917 263.43 131.867 264.68C132.844 266.008 133.332 267.831 133.332 270.148C133.332 272.727 132.766 274.784 131.633 276.32C130.617 277.701 129.328 278.404 127.766 278.43ZM144.445 273.996C144.432 273.28 144.432 272.401 144.445 271.359C143.885 271.164 143.176 271.066 142.316 271.066C141.158 271.066 140.207 271.346 139.465 271.906C139.1 272.193 138.807 272.544 138.586 272.961C138.365 273.365 138.254 273.892 138.254 274.543C138.254 275.181 138.475 275.715 138.918 276.145C139.361 276.574 140.012 276.789 140.871 276.789C141.73 276.789 142.688 276.203 143.742 275.031C144.042 274.706 144.276 274.361 144.445 273.996ZM145.695 278.41C144.914 278.41 144.523 277.818 144.523 276.633C144.523 276.555 144.517 276.333 144.504 275.969C144.387 276.112 144.257 276.268 144.113 276.438C142.941 277.766 141.665 278.43 140.285 278.43C139.178 278.43 138.26 278.078 137.531 277.375C136.776 276.646 136.398 275.715 136.398 274.582C136.398 273.007 137.01 271.737 138.234 270.773C138.781 270.344 139.393 270.018 140.07 269.797C140.76 269.576 141.529 269.465 142.375 269.465C143.078 269.465 143.768 269.582 144.445 269.816V267.746C144.445 266.6 144.204 265.741 143.723 265.168C143.254 264.595 142.766 264.309 142.258 264.309C141.75 264.309 141.333 264.374 141.008 264.504C140.695 264.634 140.415 264.823 140.168 265.07C139.621 265.604 139.309 266.268 139.23 267.062C139.27 267.479 139.185 267.772 138.977 267.941C138.768 268.098 138.54 268.176 138.293 268.176C137.59 268.176 137.251 267.707 137.277 266.77C137.303 265.793 137.798 264.895 138.762 264.074C139.751 263.228 140.858 262.805 142.082 262.805C143.905 262.805 145.135 263.71 145.773 265.52C145.995 266.171 146.105 266.887 146.105 267.668V269.68L146.086 272.961V274.699C146.086 275.48 146.177 276.112 146.359 276.594C146.555 277.076 146.652 277.421 146.652 277.629C146.652 277.824 146.555 278 146.359 278.156C146.164 278.326 145.943 278.41 145.695 278.41ZM158.41 269.406L158.391 265.285C157.635 264.803 156.919 264.562 156.242 264.562C155.578 264.562 154.992 264.699 154.484 264.973C153.99 265.233 153.54 265.63 153.137 266.164C152.225 267.349 151.77 268.918 151.77 270.871C151.77 273.618 152.401 275.428 153.664 276.301C154.081 276.587 154.556 276.73 155.09 276.73C155.624 276.73 156.079 276.62 156.457 276.398C156.835 276.177 157.154 275.904 157.414 275.578C157.883 274.979 158.202 274.27 158.371 273.449C158.397 272.382 158.41 271.034 158.41 269.406ZM159.992 249.875C159.979 250.852 159.966 251.887 159.953 252.98C159.953 254.061 159.953 256.392 159.953 259.973C159.953 263.54 160.018 267.004 160.148 270.363C160.292 273.71 160.389 275.533 160.441 275.832C160.507 276.132 160.572 276.385 160.637 276.594C160.715 276.802 160.78 276.971 160.832 277.102C160.897 277.232 160.93 277.388 160.93 277.57C160.93 277.753 160.845 277.915 160.676 278.059C160.52 278.215 160.344 278.293 160.148 278.293C159.302 278.293 158.859 277.453 158.82 275.773C158.82 275.734 158.82 275.702 158.82 275.676C157.961 277.512 156.672 278.43 154.953 278.43C153.469 278.43 152.271 277.818 151.359 276.594C150.383 275.279 149.895 273.436 149.895 271.066C149.895 268.579 150.539 266.555 151.828 264.992C153 263.56 154.387 262.844 155.988 262.844C156.887 262.844 157.655 263.007 158.293 263.332C158.28 262.395 158.273 261.424 158.273 260.422C158.26 259.172 158.247 257.928 158.234 256.691C158.221 255.441 158.202 254.23 158.176 253.059C158.163 251.887 158.15 250.786 158.137 249.758C158.111 247.609 158.078 246.164 158.039 245.422C158 244.68 158.098 244.211 158.332 244.016C158.566 243.807 158.827 243.703 159.113 243.703C159.413 243.703 159.68 243.807 159.914 244.016C160.161 244.211 160.259 244.576 160.207 245.109C160.168 245.643 160.129 246.327 160.09 247.16C160.051 247.993 160.018 248.898 159.992 249.875ZM174.543 278.41C174.504 279.296 174.484 280.174 174.484 281.047C174.484 281.919 174.582 283.918 174.777 287.043C174.777 287.538 174.51 287.87 173.977 288.039C173.833 288.078 173.69 288.098 173.547 288.098C173.417 288.098 173.286 288.072 173.156 288.02C173.039 287.98 172.935 287.909 172.844 287.805C172.622 287.583 172.531 287.212 172.57 286.691C172.701 284.934 172.766 282.329 172.766 278.879C172.766 272.746 172.694 268.033 172.551 264.738C172.525 264.309 172.616 263.964 172.824 263.703C173.046 263.443 173.306 263.312 173.605 263.312C173.905 263.312 174.146 263.423 174.328 263.645C174.523 263.853 174.608 264.133 174.582 264.484C174.543 265.057 174.517 265.559 174.504 265.988C174.96 265.155 175.565 264.458 176.32 263.898C177.271 263.182 178.339 262.824 179.523 262.824C180.708 262.824 181.633 263.267 182.297 264.152C182.974 265.038 183.312 266.177 183.312 267.57C183.312 268.964 183.169 270.148 182.883 271.125C182.596 272.089 182.212 272.954 181.73 273.723C181.262 274.491 180.715 275.161 180.09 275.734C179.478 276.307 178.846 276.789 178.195 277.18C176.906 277.948 175.689 278.358 174.543 278.41ZM174.504 269.445C174.465 272.87 174.484 275.285 174.562 276.691C175.07 276.757 175.656 276.639 176.32 276.34C177.167 275.962 177.87 275.546 178.43 275.09C178.99 274.634 179.497 274.074 179.953 273.41C180.995 271.887 181.516 270.07 181.516 267.961C181.516 266.828 181.281 265.975 180.812 265.402C180.344 264.816 179.784 264.523 179.133 264.523C178.495 264.523 177.909 264.686 177.375 265.012C176.841 265.324 176.372 265.721 175.969 266.203C175.135 267.219 174.647 268.299 174.504 269.445ZM189.035 266.418C190.194 264.087 191.685 262.922 193.508 262.922C195.148 262.922 196.255 263.885 196.828 265.812C197.023 266.49 197.121 267.323 197.121 268.312V271.477C197.121 273.82 197.173 275.565 197.277 276.711C197.303 277.128 197.186 277.447 196.926 277.668C196.678 277.889 196.411 278 196.125 278C195.839 278 195.591 277.902 195.383 277.707C195.174 277.512 195.109 277.056 195.188 276.34C195.292 275.233 195.344 274.022 195.344 272.707C195.344 271.392 195.331 270.467 195.305 269.934C195.279 269.387 195.253 268.716 195.227 267.922C195.214 267.128 195.057 266.398 194.758 265.734C194.458 265.07 194.009 264.738 193.41 264.738C192.824 264.738 192.297 264.895 191.828 265.207C191.372 265.52 190.956 265.917 190.578 266.398C189.81 267.427 189.328 268.586 189.133 269.875C189.185 272.987 189.27 275.266 189.387 276.711C189.413 277.128 189.315 277.447 189.094 277.668C188.872 277.889 188.586 278 188.234 278C187.57 278 187.238 277.596 187.238 276.789L187.512 255.109C187.512 252.336 187.44 248.872 187.297 244.719C187.271 244.302 187.382 243.996 187.629 243.801C187.889 243.592 188.163 243.488 188.449 243.488C188.736 243.488 188.977 243.592 189.172 243.801C189.38 243.996 189.471 244.348 189.445 244.855C189.432 245.363 189.413 246.105 189.387 247.082C189.361 248.046 189.328 249.139 189.289 250.363C189.263 251.587 189.237 252.902 189.211 254.309C189.185 255.715 189.159 257.154 189.133 258.625C189.107 260.096 189.087 261.568 189.074 263.039C189.061 264.198 189.048 265.324 189.035 266.418ZM208.156 264.855C207.727 264.543 207.219 264.387 206.633 264.387C206.06 264.387 205.533 264.549 205.051 264.875C204.582 265.188 204.185 265.63 203.859 266.203C203.195 267.349 202.863 268.924 202.863 270.93C202.863 272.922 203.182 274.393 203.82 275.344C204.458 276.294 205.311 276.77 206.379 276.77C207.551 276.77 208.488 276.099 209.191 274.758C209.816 273.56 210.129 272.089 210.129 270.344C210.129 267.661 209.471 265.832 208.156 264.855ZM206.359 278.43C205.617 278.443 204.921 278.293 204.27 277.98C203.632 277.655 203.078 277.154 202.609 276.477C201.581 275.044 201.066 273.007 201.066 270.363C201.066 267.993 201.62 266.125 202.727 264.758C203.768 263.456 205.148 262.805 206.867 262.805C208.312 262.805 209.51 263.43 210.461 264.68C211.438 266.008 211.926 267.831 211.926 270.148C211.926 272.727 211.359 274.784 210.227 276.32C209.211 277.701 207.922 278.404 206.359 278.43ZM216.301 259.484C216.301 259.029 216.411 258.69 216.633 258.469C216.854 258.247 217.095 258.137 217.355 258.137C217.616 258.137 217.85 258.247 218.059 258.469C218.267 258.69 218.345 259.029 218.293 259.484C218.176 260.695 218.104 262.102 218.078 263.703C219.146 263.703 219.953 263.671 220.5 263.605C221.047 263.54 221.438 263.508 221.672 263.508C222.557 263.482 223 263.807 223 264.484C223 264.875 222.772 265.148 222.316 265.305C222.16 265.357 221.978 265.376 221.77 265.363C221.561 265.35 221.333 265.344 221.086 265.344C220.852 265.331 220.617 265.324 220.383 265.324C219.979 265.324 219.589 265.324 219.211 265.324C218.846 265.324 218.521 265.331 218.234 265.344C218.182 265.344 218.124 265.344 218.059 265.344C218.059 265.37 218.059 265.389 218.059 265.402C218.059 270.793 218.137 273.833 218.293 274.523C218.449 275.214 218.618 275.708 218.801 276.008C219.126 276.529 219.543 276.789 220.051 276.789C220.871 276.789 221.424 276.385 221.711 275.578C221.828 274.927 222.16 274.602 222.707 274.602C222.902 274.602 223.072 274.686 223.215 274.855C223.371 275.012 223.449 275.246 223.449 275.559C223.449 275.871 223.352 276.21 223.156 276.574C222.961 276.939 222.701 277.258 222.375 277.531C221.659 278.13 220.858 278.43 219.973 278.43C218.358 278.43 217.245 277.538 216.633 275.754C216.411 275.103 216.301 274.302 216.301 273.352V265.48C216.027 265.493 215.728 265.513 215.402 265.539C214.999 265.552 214.693 265.454 214.484 265.246C214.289 265.025 214.191 264.797 214.191 264.562C214.191 264.315 214.296 264.1 214.504 263.918C214.712 263.723 215.025 263.625 215.441 263.625L216.301 263.645V259.484ZM232.609 264.855C232.18 264.543 231.672 264.387 231.086 264.387C230.513 264.387 229.986 264.549 229.504 264.875C229.035 265.188 228.638 265.63 228.312 266.203C227.648 267.349 227.316 268.924 227.316 270.93C227.316 272.922 227.635 274.393 228.273 275.344C228.911 276.294 229.764 276.77 230.832 276.77C232.004 276.77 232.941 276.099 233.645 274.758C234.27 273.56 234.582 272.089 234.582 270.344C234.582 267.661 233.924 265.832 232.609 264.855ZM230.812 278.43C230.07 278.443 229.374 278.293 228.723 277.98C228.085 277.655 227.531 277.154 227.062 276.477C226.034 275.044 225.52 273.007 225.52 270.363C225.52 267.993 226.073 266.125 227.18 264.758C228.221 263.456 229.602 262.805 231.32 262.805C232.766 262.805 233.964 263.43 234.914 264.68C235.891 266.008 236.379 267.831 236.379 270.148C236.379 272.727 235.812 274.784 234.68 276.32C233.664 277.701 232.375 278.404 230.812 278.43Z" fill="#006D77"/>
</svg>
