<svg width="32" height="32" viewBox="0 0 32 32" fill="none" xmlns="http://www.w3.org/2000/svg">
<rect width="32" height="32" rx="5" fill="#006D77"/>
<g clip-path="url(#clip0_155_10)">
<path d="M22.25 14.125C22.25 15.918 21.668 17.5742 20.6875 18.918L25.6328 23.8672C26.1211 24.3555 26.1211 25.1484 25.6328 25.6367C25.1445 26.125 24.3516 26.125 23.8633 25.6367L18.918 20.6875C17.5742 21.6719 15.918 22.25 14.125 22.25C9.63672 22.25 6 18.6133 6 14.125C6 9.63672 9.63672 6 14.125 6C18.6133 6 22.25 9.63672 22.25 14.125ZM14.125 19.75C14.8637 19.75 15.5951 19.6045 16.2776 19.3218C16.9601 19.0391 17.5801 18.6248 18.1025 18.1025C18.6248 17.5801 19.0391 16.9601 19.3218 16.2776C19.6045 15.5951 19.75 14.8637 19.75 14.125C19.75 13.3863 19.6045 12.6549 19.3218 11.9724C19.0391 11.2899 18.6248 10.6699 18.1025 10.1475C17.5801 9.62519 16.9601 9.21086 16.2776 8.92818C15.5951 8.64549 14.8637 8.5 14.125 8.5C13.3863 8.5 12.6549 8.64549 11.9724 8.92818C11.2899 9.21086 10.6699 9.62519 10.1475 10.1475C9.62519 10.6699 9.21086 11.2899 8.92818 11.9724C8.64549 12.6549 8.5 13.3863 8.5 14.125C8.5 14.8637 8.64549 15.5951 8.92818 16.2776C9.21086 16.9601 9.62519 17.5801 10.1475 18.1025C10.6699 18.6248 11.2899 19.0391 11.9724 19.3218C12.6549 19.6045 13.3863 19.75 14.125 19.75Z" fill="white"/>
</g>
<defs>
<clipPath id="clip0_155_10">
<rect width="20" height="20" fill="white" transform="translate(6 6)"/>
</clipPath>
</defs>
</svg>
